PathFileType	3	(X/Y/Z)	D:\Jess\Healthy\Labelled\HA13\20250417\SRRun01.trc
DataRate	CameraRate	NumFrames	NumMarkers	Units	OrigDataRate	OrigDataStartFrame	OrigNumFrames
250.0	250.0	4	37	mm	250.0	35000	2501
Frame#	Time	C7			T10			CLAV			LSHO			RSHO			LASIS			RASIS			LPSIS			RPSIS			LILCR			RILCR			LGTR			LTHI			LLTHI			LLEP			LMEP			LPSH			LLSH			LDSH			LLMAL			LMMAL			LTOE			L5TH			LHEE			RGTR			RTHI			RLTHI			RLEP			RMEP			RPSH			RLSH			RDSH			RLMAL			RMMAL			RTOE			R5TH			RHEE			
		X1	Y1	Z1	X2	Y2	Z2	X3	Y3	Z3	X4	Y4	Z4	X5	Y5	Z5	X6	Y6	Z6	X7	Y7	Z7	X8	Y8	Z8	X9	Y9	Z9	X10	Y10	Z10	X11	Y11	Z11	X12	Y12	Z12	X13	Y13	Z13	X14	Y14	Z14	X15	Y15	Z15	X16	Y16	Z16	X17	Y17	Z17	X18	Y18	Z18	X19	Y19	Z19	X20	Y20	Z20	X21	Y21	Z21	X22	Y22	Z22	X23	Y23	Z23	X24	Y24	Z24	X25	Y25	Z25	X26	Y26	Z26	X27	Y27	Z27	X28	Y28	Z28	X29	Y29	Z29	X30	Y30	Z30	X31	Y31	Z31	X32	Y32	Z32	X33	Y33	Z33	X34	Y34	Z34	X35	Y35	Z35	X36	Y36	Z36	X37	Y37	Z37	

1	139.996	902.3281577490216	1624.013388427551	-294.5117865801731	824.8252984723489	1371.456368340667	-297.3118899691793	1057.677321820925	1527.239182061925	-313.8582246080769	952.1935962248947	1610.905634870872	-453.1212622858597	970.0186985582706	1610.888209720421	-159.5381827235294	1014.699228097842	1088.677207384714	-400.2416033906188	993.1848394861249	1086.163629784023	-193.5155977054823	824.2868203155926	1142.438324782715	-338.6215100409361	824.1518014164029	1138.382898690119	-295.1351249351307	963.3681861645452	1168.222649641154	-462.3748643139516	948.0356829803169	1161.578491890899	-151.7253482198747	996.7506971815181	931.6438090419636	-476.6784863416133	1098.850151217571	848.3365790343133	-416.5767173632788	1027.231601396081	730.6179238599306	-460.3750533177337	1078.016943722221	608.1352840213543	-442.2237858874786	nan	nan	nan	1158.634140759137	506.0604385326835	-390.4822359202191	1099.601705277789	366.1540009165904	-436.0745777327227	1177.76658158426	276.610611897859	-374.4331797029513	1147.812491694246	169.9112795554268	-393.3568541955729	nan	nan	nan	1304.764220139301	125.2450621256195	-368.3414352129616	1273.39149395292	82.47941569800837	-398.7536312882506	1087.056193287112	121.5424342137437	-329.9810140246873	894.1004234629362	923.2345085882304	-129.1068382427406	956.0182137595381	781.3880379880611	-194.7148858360049	796.6072124029438	727.8281533356752	-152.0149836558613	743.2013037077793	583.5223315015577	-170.0127978967409	nan	nan	nan	730.0891112108835	475.8530934207469	-214.0720172256708	589.4888202929045	459.6970532199102	-171.2265921766726	529.0580379880051	317.1537644894136	-233.2195502892646	434.2059691143148	302.8562413045902	-212.2816047662893	nan	nan	nan	459.7155143305963	137.7077999786442	-218.883538708398	404.6025968748471	169.022948149331	-195.1954458659556	378.5256990332789	340.7133867883496	-272.1488008045559	
2	140	902.3503929335598	1622.653201666271	-295.0767866946628	824.248419897658	1370.17072818162	-298.3128333637035	1057.633216053181	1525.547933327678	-314.0566504327354	952.6107609549689	1609.389581303794	-453.5558611493529	970.0608721305234	1609.306652638346	-159.9723590214006	1014.663299207644	1087.328620953677	-400.2570760256407	993.2902772997487	1085.088386950325	-193.3231550014502	824.1029327694014	1140.268056710013	-338.5624330691775	824.085666802988	1136.214394934625	-295.0676430389876	962.9876768813315	1166.460129836208	-462.4395064915112	947.4678161076559	1160.263679092697	-151.462855316756	996.3193048935278	929.3570464726167	-477.6184688683238	1097.578348586492	844.9418050867361	-416.5920609704031	1027.767176336061	728.8653171983341	-460.881277519699	1077.753052500065	606.4498084009643	-442.4255327728314	nan	nan	nan	1157.771349932906	504.2670192523962	-391.0975195040138	1097.896845447904	364.3556976385725	-435.8498724908399	1176.228752260588	274.5442545557518	-374.64930104364	1145.575790637804	167.8700611461215	-393.1397693632396	nan	nan	nan	1302.376585332456	121.8025573386108	-368.4710751051803	1270.503096666771	79.12965929597279	-398.4541178551826	1084.93574327651	120.2981599172547	-329.2134452351681	895.9461453006693	921.1622034573103	-129.5021917167296	959.4218765110331	780.2154892890604	-195.5924262318673	801.0071184152187	724.6727366484536	-151.8380017996236	748.3728576034413	581.020858456734	-169.873766690742	nan	nan	nan	732.7597572617531	473.9174850866048	-213.5584162219406	591.7234590134907	462.2416660955141	-170.8876471637304	527.6785345783356	321.4542633799869	-232.2838359173884	432.5778889720876	309.7086746968586	-211.1738229968009	nan	nan	nan	454.9912244555672	144.5372781100642	-216.9855605517988	400.5369856766474	176.9261856128869	-193.3739507331382	377.3919795343342	348.5029748615004	-271.1414803531515	
3	140.004	902.3724008345316	1621.290444158297	-295.6370206205487	823.6818797540041	1368.887084377512	-299.3077881434824	1057.581448627031	1523.876614606247	-314.2542614990635	953.0239809315361	1607.881972735277	-453.9833009802254	970.105324999641	1607.735453626042	-160.4049081965465	1014.640971486074	1085.990172508281	-400.2752322118967	993.3990693303253	1084.026536165514	-193.1292440243033	823.9285874496336	1138.107696753386	-338.4993860773808	824.0279314888256	1134.061779192877	-294.9974964172358	962.5987747482945	1164.720107966591	-462.5046158313783	946.9042307817239	1158.969769221728	-151.2025101245196	995.9131299109048	927.1008983080161	-478.5241444014308	1096.391829107711	841.7014182200651	-416.595259016491	1028.352119917809	727.142012511746	-461.3808281976052	1077.526513967128	604.7817118515433	-442.6433606449763	nan	nan	nan	1156.933530469003	502.4627740540953	-391.7324635728954	1096.222249078891	362.5518503410594	-435.6676817645763	1174.690474890707	272.4620838789635	-374.8857607019666	1143.339233900219	165.8145018808933	-392.951368051532	nan	nan	nan	1299.977370177475	118.3564602449586	-368.5798991348609	1267.608229453554	75.78511664148557	-398.1582508671203	1082.791881168368	119.0330041382643	-328.4902211717802	897.777287547396	919.108734664975	-129.8878797876448	962.7696252345841	779.0619892078623	-196.4962653916425	805.372880010096	721.5348636831629	-151.6551451252167	753.495278241797	578.5356020434698	-169.7360967379214	nan	nan	nan	735.4032227326876	471.9933799489512	-213.0496189714295	593.9437939027698	464.7608629886957	-170.5521840396521	526.3122022165689	325.7177280913062	-231.3521820028481	430.9676365020926	316.5075223884496	-210.071002212726	nan	nan	nan	450.2832515085351	151.3145457587674	-215.11049674741	396.4894359245789	184.7746254359112	-191.573221616088	376.2840834533237	356.2387379506686	-270.1354272362365	
4	140.008	902.3874281137172	1619.892262375485	-296.1968931671583	823.1314284682737	1367.570456579473	-300.2901115671678	1057.520798902279	1522.193881707918	-314.4462273526302	953.4297540038293	1606.348738035991	-454.4060581459204	970.1424248821185	1606.146478406147	-160.8314330756384	1014.631505795546	1084.63756591199	-400.3018259376607	993.5104406530229	1082.943769491397	-192.9365419800209	823.7629414264159	1135.921471647758	-338.4214271886456	823.9748545418995	1131.890612801593	-294.9148831257476	962.1926339003368	1162.97192603731	-462.5730232046617	946.3507656662841	1157.65972902669	-150.9425019996243	995.5431138785748	924.8708447250551	-479.3726731738923	1095.340488569769	838.6807525383233	-416.592794201512	1028.994110593596	725.4419065786403	-461.8541068946811	1077.336962992665	603.1101356849967	-442.8746921927902	nan	nan	nan	1156.096072444262	500.604851910027	-392.369577184535	1094.535602174857	360.7203949990841	-435.53570460811	1173.06177348738	270.328710054366	-375.1253084202991	1140.997029698652	163.7255726500876	-392.7864888240466	nan	nan	nan	1297.442793372645	114.8983400993912	-368.6350826086531	1264.583658670576	72.4569698014937	-397.8602184206514	1080.489163173409	117.7281037033595	-327.8281845952354	899.6017728780635	917.0430374421077	-130.2577483016699	966.0357113113414	777.9056240116229	-197.440402328501	809.7132042571315	718.3887933953416	-151.4607927974952	758.5903525264121	576.0440310012995	-169.5944892005901	nan	nan	nan	738.0539594124074	470.0670229588113	-212.546529282434	596.2073732749668	467.2183943561545	-170.2104626148126	525.0306599204976	329.926936531713	-230.4205038898916	429.4590493144921	323.2349208608337	-208.9673186842407	nan	nan	nan	445.6601270274459	158.0302346864729	-213.2618951783412	392.5377339037184	192.5605742646384	-189.7934186647565	375.2949735861187	363.9063972855311	-269.1215794976731	
